<svg viewBox="0 0 96 96" xmlns="http://www.w3.org/2000/svg" xmlns:xlink="http://www.w3.org/1999/xlink" id="Icons_MountainScene" overflow="hidden"><path d="M84.24 85.29 67.65 58.74C67.1662 57.9613 66.1427 57.7222 65.3639 58.2061 65.1473 58.3407 64.9646 58.5234 64.83 58.74L60 66.55 70.4 83.44C71.3019 84.786 71.4957 86.4855 70.92 88L82.71 88C83.3508 88.0204 83.9491 87.6807 84.26 87.12 84.5843 86.571 84.5843 85.889 84.26 85.34Z"/><path d="M67.59 85.26 41.12 42.21C40.5457 41.4258 39.4444 41.2555 38.6602 41.8298 38.5147 41.9363 38.3865 42.0645 38.28 42.21L11.82 85.26C11.2385 85.9901 11.359 87.0534 12.0891 87.6348 12.4147 87.8941 12.8245 88.0241 13.24 88L66.17 88C67.1086 88.0212 67.8867 87.2774 67.9079 86.3388 67.9162 85.9705 67.8046 85.6094 67.59 85.31ZM43.81 58.41 39.7 62.07 35.6 58.41 30.54 61.5 39.7 46.5 48.86 61.5Z"/><path d="M21.66 31.8C21.8598 30.85 22.266 29.9555 22.85 29.18 23.7293 28.0147 24.9598 27.1629 26.36 26.75 27.2533 24.488 29.1944 22.8045 31.56 22.24 32.1292 22.0953 32.7129 22.0148 33.3 22L33.63 22C33.3891 20.559 32.5827 19.2738 31.39 18.43 29.9327 17.4067 28.0723 17.1462 26.39 17.73 24.7224 14.4825 20.7379 13.2018 17.4905 14.8695 15.2923 15.9983 13.9073 18.2589 13.9 20.73L13.9 20.73C10.8624 20.4262 8.15376 22.6424 7.85 25.68 7.54624 28.7176 9.76243 31.4262 12.8 31.73L12.8 31.73Z"/><path d="M42.51 31 42.26 31C42.2671 28.94 40.6029 27.2643 38.5429 27.2572 38.1055 27.2556 37.6713 27.3311 37.26 27.48 36.1245 25.2817 33.4219 24.4202 31.2236 25.5557 29.7527 26.3155 28.8207 27.8246 28.8 29.48L28.8 29.48C26.7234 29.2784 24.8766 30.7984 24.675 32.875 24.4734 34.9516 25.9934 36.7984 28.07 37L42.51 37C44.1669 37 45.51 35.6569 45.51 34 45.51 32.3431 44.1669 31 42.51 31Z"/><path d="M86.72 56 86.53 56C86.532 54.4315 85.2621 53.1584 83.6936 53.1564 83.3687 53.156 83.0462 53.2113 82.74 53.32 81.8868 51.6411 79.8341 50.9716 78.1552 51.8248 77.0124 52.4055 76.2918 53.5781 76.29 54.86L76.29 54.86C75.2416 54.7025 74.1928 55.1421 73.57 56 72.6243 57.2513 72.872 59.0324 74.1234 59.9781 74.5849 60.3269 75.142 60.5264 75.72 60.55L86.72 60.55C87.9764 60.6333 89.0626 59.6824 89.1459 58.4259 89.2293 57.1695 88.2783 56.0833 87.0218 56 86.9213 55.9933 86.8205 55.9933 86.72 56Z"/><path d="M66 40 66.39 40 66.75 38.44C67.25 34.94 77 26.3 77 20.44 77 13.33 71.22 8.44 63 8.44 54.78 8.44 49 13.35 49 20.44 49 26.3 58.75 34.94 59.25 38.44L59.61 40 60 40 60 42 60 42 58 42 58 42 58 47.44C58.0161 48.318 58.741 49.0167 59.6189 49.0005 59.626 49.0004 59.633 49.0002 59.64 49L66.36 49C67.2345 49.0281 67.9674 48.3444 68 47.47L68 42 68 42 66 42 66 42ZM72.5 21.19C72.5 24.26 69.62 29.65 67.5 33.6 66.84 34.86 66.25 36 65.74 37L65.74 37 64.2 37 64.57 35.73C65.77 31.67 68 24.11 68 21.07 68 15 66.55 10.88 64.14 9.92 64.1124 9.92 64.09 9.89761 64.09 9.87 64.09 9.84239 64.1124 9.82 64.14 9.82 69.2 10.41 72.5 14.82 72.5 21.19ZM58.5 33.6C56.39 29.6 53.5 24.26 53.5 21.19 53.5 14.82 56.8 10.41 61.83 9.82 61.8576 9.82 61.88 9.84239 61.88 9.87 61.88 9.89761 61.8576 9.92 61.83 9.92 59.42 10.92 57.97 14.92 57.97 21.07 57.97 24.07 60.2 31.67 61.41 35.74 61.53 36.18 61.65 36.59 61.77 37L60.29 37 60.29 37C59.74 36 59.16 34.86 58.49 33.6ZM62 40 64 40 64 40 64 42 64 42 62 42 62 42 62 40 62 40Z"/></svg>